<mxfile host="65bd71144e">
    <diagram id="pZTPlysCf_FTDf4cO_qd" name="Page-1">
        <mxGraphModel dx="999" dy="643" grid="1" gridSize="10" guides="1" tooltips="1" connect="1" arrows="1" fold="1" page="1" pageScale="1" pageWidth="1169" pageHeight="827" background="#ffffff" math="0" shadow="0">
            <root>
                <mxCell id="0"/>
                <mxCell id="1" parent="0"/>
                <mxCell id="24" value="" style="rounded=0;whiteSpace=wrap;html=1;" vertex="1" parent="1">
                    <mxGeometry x="30" y="20" width="800" height="380" as="geometry"/>
                </mxCell>
                <mxCell id="2" value="" style="shape=note;whiteSpace=wrap;html=1;backgroundOutline=1;darkOpacity=0.05;" parent="1" vertex="1">
                    <mxGeometry x="70" y="180" width="80" height="100" as="geometry"/>
                </mxCell>
                <mxCell id="3" value="TeamCity&lt;br&gt;Build Configuration XML Files" style="text;strokeColor=none;align=center;fillColor=none;html=1;verticalAlign=middle;whiteSpace=wrap;rounded=0;" parent="1" vertex="1">
                    <mxGeometry x="80" y="310" width="60" height="30" as="geometry"/>
                </mxCell>
                <mxCell id="4" value="" style="shape=flexArrow;endArrow=classic;html=1;" parent="1" edge="1">
                    <mxGeometry width="50" height="50" relative="1" as="geometry">
                        <mxPoint x="170" y="240" as="sourcePoint"/>
                        <mxPoint x="220" y="240" as="targetPoint"/>
                    </mxGeometry>
                </mxCell>
                <mxCell id="5" value="Parse XML DOM" style="text;strokeColor=none;align=center;fillColor=none;html=1;verticalAlign=middle;whiteSpace=wrap;rounded=0;" parent="1" vertex="1">
                    <mxGeometry x="270" y="280" width="60" height="30" as="geometry"/>
                </mxCell>
                <mxCell id="6" value="" style="shape=process;whiteSpace=wrap;html=1;backgroundOutline=1;" parent="1" vertex="1">
                    <mxGeometry x="240" y="210" width="120" height="60" as="geometry"/>
                </mxCell>
                <mxCell id="7" value="" style="sketch=0;pointerEvents=1;shadow=0;dashed=0;html=1;strokeColor=none;labelPosition=center;verticalLabelPosition=bottom;verticalAlign=top;outlineConnect=0;align=center;shape=mxgraph.office.concepts.folder;fillColor=#2072B8;" parent="1" vertex="1">
                    <mxGeometry x="80" y="90" width="50" height="45" as="geometry"/>
                </mxCell>
                <mxCell id="8" value="" style="sketch=0;pointerEvents=1;shadow=0;dashed=0;html=1;strokeColor=none;labelPosition=center;verticalLabelPosition=bottom;verticalAlign=top;outlineConnect=0;align=center;shape=mxgraph.office.concepts.folder;fillColor=#2072B8;" parent="1" vertex="1">
                    <mxGeometry x="470" y="110" width="50" height="45" as="geometry"/>
                </mxCell>
                <mxCell id="9" value="TeamCity&lt;br&gt;Data Dir" style="text;align=center;html=1;verticalAlign=middle;whiteSpace=wrap;rounded=0;labelBackgroundColor=none;" parent="1" vertex="1">
                    <mxGeometry x="80" y="50" width="60" height="30" as="geometry"/>
                </mxCell>
                <mxCell id="10" value="Templates" style="text;strokeColor=none;align=center;fillColor=none;html=1;verticalAlign=middle;whiteSpace=wrap;rounded=0;" parent="1" vertex="1">
                    <mxGeometry x="465" y="70" width="60" height="30" as="geometry"/>
                </mxCell>
                <mxCell id="11" value="" style="shape=flexArrow;endArrow=classic;html=1;" parent="1" edge="1">
                    <mxGeometry width="50" height="50" relative="1" as="geometry">
                        <mxPoint x="380" y="239.5" as="sourcePoint"/>
                        <mxPoint x="426" y="240" as="targetPoint"/>
                    </mxGeometry>
                </mxCell>
                <mxCell id="12" value="" style="shape=process;whiteSpace=wrap;html=1;backgroundOutline=1;" parent="1" vertex="1">
                    <mxGeometry x="440" y="210" width="120" height="60" as="geometry"/>
                </mxCell>
                <mxCell id="13" value="Inject Variables" style="text;strokeColor=none;align=center;fillColor=none;html=1;verticalAlign=middle;whiteSpace=wrap;rounded=0;" parent="1" vertex="1">
                    <mxGeometry x="470" y="280" width="60" height="30" as="geometry"/>
                </mxCell>
                <mxCell id="14" value="" style="shape=process;whiteSpace=wrap;html=1;backgroundOutline=1;" parent="1" vertex="1">
                    <mxGeometry x="625" y="210" width="120" height="60" as="geometry"/>
                </mxCell>
                <mxCell id="15" value="" style="shape=flexArrow;endArrow=classic;html=1;" parent="1" edge="1">
                    <mxGeometry width="50" height="50" relative="1" as="geometry">
                        <mxPoint x="570" y="239.5" as="sourcePoint"/>
                        <mxPoint x="616" y="240" as="targetPoint"/>
                    </mxGeometry>
                </mxCell>
                <mxCell id="16" value="Generate Pipeline Files" style="text;strokeColor=none;align=center;fillColor=none;html=1;verticalAlign=middle;whiteSpace=wrap;rounded=0;" parent="1" vertex="1">
                    <mxGeometry x="655" y="280" width="60" height="30" as="geometry"/>
                </mxCell>
                <mxCell id="21" value="" style="shape=flexArrow;endArrow=classic;html=1;width=12.5;endSize=5.15;" parent="1" edge="1">
                    <mxGeometry width="50" height="50" relative="1" as="geometry">
                        <mxPoint x="495" y="200" as="sourcePoint"/>
                        <mxPoint x="495" y="160" as="targetPoint"/>
                    </mxGeometry>
                </mxCell>
                <mxCell id="22" value="" style="shape=flexArrow;endArrow=classic;html=1;width=12.5;endSize=5.15;" parent="1" edge="1">
                    <mxGeometry width="50" height="50" relative="1" as="geometry">
                        <mxPoint x="690" y="200" as="sourcePoint"/>
                        <mxPoint x="690" y="160" as="targetPoint"/>
                    </mxGeometry>
                </mxCell>
                <mxCell id="23" value=".gitlab-ci.yml" style="shape=note;whiteSpace=wrap;html=1;backgroundOutline=1;darkOpacity=0.05;" parent="1" vertex="1">
                    <mxGeometry x="645" y="40" width="80" height="100" as="geometry"/>
                </mxCell>
            </root>
        </mxGraphModel>
    </diagram>
</mxfile>